<svg id="Layer_1" height="512" viewBox="0 0 512 512" width="512" xmlns="http://www.w3.org/2000/svg" data-name="Layer 1"><path d="m450.6 17.336c12.75 8.91 52.85 48.42 18.5 177.86a3.1 3.1 0 0 1 -3.9 2.16l-52.95-16.38 43.52 37.79a3.07 3.07 0 0 1 1.14 3.44c-4.11 12.85-26.51 80.6-54.49 123.75a4.967 4.967 0 0 1 -4.58 2.23l-77.35-4.74 61.57 32.03a3.084 3.084 0 0 1 1.5 3.94c-6.53 15.83-46.19 95.31-136.39 55.27v-.01c38.08-24.59 45.38-57.11 42.89-83.94l.25-.02c58.962-80.06 132.442-200.6 160.29-333.38z" fill="#76c660"/><path d="m446.962 15.146a24.306 24.306 0 0 1 3.64 2.19c-27.85 132.78-101.33 253.32-160.29 333.38l-.25.02a122.656 122.656 0 0 0 -5.79-27.03c47.79-67.81 105.62-167.98 156.73-307.17a34.72 34.72 0 0 1 5.96-1.39z" fill="#42997f"/><path d="m377.682 66.156c8.08-9.48 39.42-41.97 63.32-49.62-51.11 139.19-108.94 239.36-156.73 307.17a133.547 133.547 0 0 0 -8.74-20.51 3.071 3.071 0 0 0 -3.99-1.35l-63.86 27.19 52.81-56.72a4.927 4.927 0 0 0 1.19-4.95c-4.65-14.66-11.31-30.33-18.56-45.4q4.125-5.085 8.64-10.3a5.524 5.524 0 0 1 6.67-1.31l57.52 25-39.46-53.37a5.506 5.506 0 0 1 .33-7.38l75.82-76.37a5.5 5.5 0 0 1 6.46-1l29.27 9.31-11.53-34.58a5.518 5.518 0 0 1 .84-5.81z" fill="#50b568"/><path d="m290.062 350.736c2.49 26.83-4.81 59.35-42.89 83.94a168.18 168.18 0 0 1 -33.34 16.28c-13.05-79.06-56.42-281.29-175.27-429.61 14.97-4.19 70.95-10.06 149.09 98.72a3.1 3.1 0 0 1 -.82 4.39l-46.28 30.48 56.82-9.59a3.077 3.077 0 0 1 3.39 1.3c5.12 7.95 25.37 39.98 42.36 75.32 7.25 15.07 13.91 30.74 18.56 45.4a4.927 4.927 0 0 1 -1.19 4.95l-52.81 56.72 63.86-27.19a3.071 3.071 0 0 1 3.99 1.35 133.547 133.547 0 0 1 8.74 20.51 122.656 122.656 0 0 1 5.79 27.03z" fill="#81df6b"/><path d="m218.652 484.566-23.29 10.58s.08-14.26-3.29-40.84c-8.81-69.45-41.21-223.05-160.23-426.06v-.01a35.418 35.418 0 0 1 2.72-5.48 24.835 24.835 0 0 1 4-1.41c118.85 148.32 162.22 350.55 175.27 429.61 3.5 21.26 4.82 33.61 4.82 33.61z" fill="#42997f"/><path d="m192.072 454.306s-101.32 12.3-129.81-155.95a5.5 5.5 0 0 1 3.22-5.98l55.86-28.53-66.29-3.44a5.519 5.519 0 0 1 -5.49-4.95l-10.79-107.08a5.5 5.5 0 0 1 3.34-5.61l25.79-16.68-34.03-13.08a5.492 5.492 0 0 1 -3.95-4.34c-2.19-12.26-7.36-57.11 1.92-80.42 119.02 203.01 151.42 356.61 160.23 426.06z" fill="#50b568"/><path d="m92.262 298.356a5.5 5.5 0 0 1 3.22-5.98l49.44-25.25c-.439-1.227-.87-2.446-1.316-3.681l-58.554-3.039a5.519 5.519 0 0 1 -5.49-4.95l-10.79-107.08a5.5 5.5 0 0 1 3.34-5.61l15.788-10.211q-3.091-6.326-6.288-12.73l-17.741-6.819a5.492 5.492 0 0 1 -3.95-4.34 269.765 269.765 0 0 1 -3.354-36.71q-11.7-21.45-24.726-43.71c-9.28 23.31-4.11 68.16-1.92 80.42a5.492 5.492 0 0 0 3.95 4.34l34.03 13.08-25.79 16.68a5.5 5.5 0 0 0 -3.34 5.61l10.79 107.08a5.519 5.519 0 0 0 5.49 4.95l66.29 3.44-55.86 28.53a5.5 5.5 0 0 0 -3.22 5.98c28.49 168.25 129.81 155.95 129.81 155.95-.164-1.294-.339-2.628-.52-3.981-32.243-10.044-80.913-43.451-99.289-151.969z" fill="#449655"/></svg>